<!DOCTYPE svg PUBLIC "-//W3C//DTD SVG 1.1//EN" "http://www.w3.org/Graphics/SVG/1.1/DTD/svg11.dtd">
<!-- Uploaded to: SVG Repo, www.svgrepo.com, Transformed by: SVG Repo Mixer Tools -->
<svg fill="#ffffff" width="256px" height="256px" viewBox="0 0 256.00 256.00" id="Flat" xmlns="http://www.w3.org/2000/svg" stroke="#ffffff" stroke-width="0.00256">
<g id="SVGRepo_bgCarrier" stroke-width="0"/>
<g id="SVGRepo_tracerCarrier" stroke-linecap="round" stroke-linejoin="round"/>
<g id="SVGRepo_iconCarrier"> <path d="M205.65674,61.65674l-144,144a7.99984,7.99984,0,0,1-11.31348-11.31348l144-144a7.99984,7.99984,0,0,1,11.31348,11.31348ZM64,112a8,8,0,0,0,16,0V80h32a8,8,0,0,0,0-16H80V32a8,8,0,0,0-16,0V64H32a8,8,0,0,0,0,16H64Zm160,64H144a8,8,0,0,0,0,16h80a8,8,0,0,0,0-16Z"/> </g>
</svg>